<?xml version="1.0" standalone="no"?><!DOCTYPE svg PUBLIC "-//W3C//DTD SVG 1.1//EN" "http://www.w3.org/Graphics/SVG/1.1/DTD/svg11.dtd"><svg t="1772870274946" class="icon" viewBox="0 0 1024 1024" version="1.1" xmlns="http://www.w3.org/2000/svg" p-id="1054" xmlns:xlink="http://www.w3.org/1999/xlink" width="200" height="200"><path d="M793.6 51.2H230.4C156.16 51.2 97.28 112.64 97.28 184.32v655.36C97.28 911.36 156.16 972.8 230.4 972.8h563.2c71.68 0 133.12-58.88 133.12-133.12V184.32C926.72 112.64 867.84 51.2 793.6 51.2z m66.56 788.48c0 35.84-28.16 66.56-66.56 66.56H230.4c-35.84 0-66.56-28.16-66.56-66.56V184.32c0-35.84 28.16-66.56 66.56-66.56h563.2c35.84 0 66.56 28.16 66.56 66.56v655.36z" p-id="1055" fill="#2c2c2c"></path><path d="M289.28 332.8h279.04c17.92 0 33.28-15.36 33.28-33.28s-15.36-33.28-33.28-33.28H289.28c-17.92 0-33.28 15.36-33.28 33.28s15.36 33.28 33.28 33.28zM734.72 476.16H289.28c-17.92 0-33.28 15.36-33.28 33.28s15.36 33.28 33.28 33.28h442.88c17.92 0 33.28-15.36 33.28-33.28s-12.8-33.28-30.72-33.28zM734.72 686.08H289.28c-17.92 0-33.28 15.36-33.28 33.28s15.36 33.28 33.28 33.28h442.88c17.92 0 33.28-15.36 33.28-33.28s-12.8-33.28-30.72-33.28z" p-id="1056" fill="#2c2c2c"></path></svg>